<?xml version="1.0" encoding="iso-8859-1"?>
<!-- Uploaded to: SVG Repo, www.svgrepo.com, Generator: SVG Repo Mixer Tools -->
<svg fill="#000000" height="800px" width="800px" version="1.1" id="Layer_1" xmlns="http://www.w3.org/2000/svg" xmlns:xlink="http://www.w3.org/1999/xlink" 
	 viewBox="0 0 512 512" xml:space="preserve">
<g>
	<g>
		<path d="M271.209,109.571V0h-30.417v109.571l-115.834,88.83V512h262.084V198.401L271.209,109.571z M240.791,191.117v28.658h30.417
			v-28.658c10.25,5.462,17.245,16.257,17.245,28.658c0,17.894-14.558,32.453-32.453,32.453c-17.895,0-32.453-14.558-32.453-32.453
			C223.546,207.373,230.542,196.578,240.791,191.117z M190.434,304.666h131.131v30.417H190.434V304.666z M190.434,355.365h131.131
			v30.417H190.434V355.365z M190.434,436.48v-30.417h131.131v30.417H190.434z"/>
	</g>
</g>
</svg>